<svg preserveAspectRatio="none" overflow="visible" style="display: block;" width="157" height="457" viewBox="0 0 157 457" fill="none" xmlns="http://www.w3.org/2000/svg">
<g id="Frame 1000001775">
<g id="Vector" filter="url(#filter0_d_0_4)">
<path d="M146.977 247.754C146.148 243.441 146.613 235.91 143.705 227.571C141.317 220.736 143.871 207.001 144.125 189.306C144.368 171.6 139.592 160.319 139.592 160.319C138.464 154.026 134.683 123.248 134.683 123.248C134.683 123.248 138.188 95.0908 123.405 85.2812C116.108 80.4261 111.299 82.9035 103.504 79.3202C95.7092 75.7259 89.4844 72.9611 89.3628 71.3575C89.2743 70.1962 89.2523 65.8942 89.2412 63.627C90.7559 61.7911 92.1048 59.5682 93.3984 57.0577C94.504 54.9343 95.1121 52.6229 95.477 50.3225C96.9254 49.847 97.5445 47.2923 97.8431 45.1246C98.2079 42.4482 100.353 39.9599 99.2804 36.5315C98.6171 34.3971 97.5114 34.3196 96.7817 34.5629C97.7436 28.237 97.5777 19.478 91.751 14.4792C86.455 9.93375 78.5055 10.0001 78.5055 10.0001C78.5055 10.0001 70.5561 9.93375 65.2711 14.4792C59.4444 19.478 59.2785 28.237 60.2404 34.5629C59.5107 34.3196 58.394 34.3971 57.7417 36.5315C56.6692 39.9599 58.8142 42.4482 59.1791 45.1246C59.4776 47.2923 60.0968 49.847 61.5341 50.3225C61.8989 52.6229 62.5181 54.9454 63.6237 57.0577C64.851 59.4465 66.1445 61.5589 67.5708 63.3394C67.604 65.7172 67.6371 69.8534 67.5487 70.9814C67.427 72.585 61.324 75.7259 53.5293 79.3202C45.7346 82.9145 40.9251 80.4261 33.6279 85.2812C18.8677 95.0908 22.3614 123.248 22.3614 123.248C22.3614 123.248 18.5913 154.026 17.4525 160.319C17.4525 160.319 12.676 171.611 12.9303 189.306C13.1846 207.001 15.7386 220.736 13.3505 227.571C10.4427 235.899 10.9071 243.441 10.0778 247.754C9.07172 253.019 18.0827 270.139 21.8418 267.54C24.241 265.892 17.2645 255.618 18.0164 251.127C18.7682 246.637 20.9905 240.499 22.1625 242.479C23.3345 244.448 23.4008 248.02 25.203 250.541C27.0052 253.063 29.9018 252.587 28.1328 245.277C26.3748 237.967 27.6353 239.205 26.2533 234.715C24.8712 230.225 23.3013 231.055 24.3627 223.944C25.4351 216.821 36.0492 189.438 36.6352 162.929C36.6352 162.929 43.7112 140.257 44.1977 136.508C44.1977 136.508 45.2038 141.872 47.3598 150.1C48.1558 153.13 47.7688 157.377 47.4814 161.381C47.1276 166.49 46.5859 171.423 45.1817 175.161C42.6719 181.829 43.1253 180.259 41.0909 187.934C37.6524 200.874 38.0725 205.452 34.5345 234.339C32.2679 252.809 32.9976 265.383 33.274 275.558C33.7716 294.204 41.312 300.264 39.8968 320.514C39.4766 326.552 37.6081 339.901 38.2162 354.909C38.8685 371.033 42.086 389.038 44.5405 401.081C47.5478 415.868 44.4078 416.985 44.242 420.236C43.9656 425.622 44.5846 431.605 41.9532 434.437C39.3108 437.257 36.1708 438.916 37.1769 442.51C37.8956 445.087 50.124 446.989 56.028 447C62.5623 447.011 62.9492 444.954 61.0586 438.152C59.168 431.351 58.3609 428.619 59.3007 424.295C60.3068 419.683 58.3831 418.356 58.2504 411.168C58.1177 403.99 61.2355 394.18 65.0831 378.122C70.1138 357.087 62.9383 348.87 64.3314 324.506C64.6409 318.999 68.5769 306.225 70.4897 289.238C72.1592 274.352 75.1112 264.1 75.9515 253.583C77.1787 238.288 77.1567 237.148 78.5055 237.082C79.8544 237.159 79.8322 238.288 81.0595 253.583C81.9108 264.1 84.8519 274.352 86.5214 289.238C88.4341 306.225 92.3701 318.999 92.6797 324.506C94.0617 348.881 86.8973 357.087 91.9279 378.122C95.7645 394.18 98.8823 403.99 98.7607 411.168C98.6391 418.356 96.7043 419.683 97.7104 424.295C98.6612 428.619 97.832 431.351 95.9525 438.152C94.0729 444.954 94.4487 447.011 100.972 447C106.887 446.989 119.104 445.098 119.834 442.51C120.84 438.916 117.7 437.246 115.058 434.437C112.415 431.605 113.046 425.622 112.769 420.236C112.603 416.985 109.463 415.868 112.471 401.081C114.914 389.027 118.143 371.033 118.784 354.909C119.392 339.901 117.523 326.541 117.103 320.514C115.688 300.264 123.228 294.193 123.726 275.558C124.002 265.394 124.732 252.809 122.466 234.339C118.928 205.452 119.348 200.874 115.909 187.934C113.875 180.259 114.328 181.829 111.818 175.161C110.514 171.721 110.094 167.187 109.662 162.476C109.253 158.052 108.767 153.44 109.64 150.111C111.796 141.883 112.802 136.519 112.802 136.519C113.289 140.257 120.365 162.94 120.365 162.94C120.951 189.449 131.576 216.832 132.637 223.955C133.699 231.066 132.14 230.247 130.747 234.726C129.365 239.217 130.625 237.978 128.856 245.288C127.098 252.598 129.995 253.063 131.797 250.552C133.588 248.031 133.654 244.459 134.826 242.49C136.009 240.522 138.221 246.648 138.984 251.139C139.735 255.629 132.759 265.892 135.158 267.551C138.917 270.15 147.928 253.03 146.922 247.765L146.977 247.754Z" fill="#FF154D"/>
</g>
</g>
<defs>
<filter id="filter0_d_0_4" x="-1.16611e-08" y="4.82903e-10" width="157" height="457" filterUnits="userSpaceOnUse" color-interpolation-filters="sRGB">
<feFlood flood-opacity="0" result="BackgroundImageFix"/>
<feColorMatrix in="SourceAlpha" type="matrix" values="0 0 0 0 0 0 0 0 0 0 0 0 0 0 0 0 0 0 127 0" result="hardAlpha"/>
<feOffset/>
<feGaussianBlur stdDeviation="5"/>
<feComposite in2="hardAlpha" operator="out"/>
<feColorMatrix type="matrix" values="0 0 0 0 1 0 0 0 0 0.0823529 0 0 0 0 0.301961 0 0 0 1 0"/>
<feBlend mode="normal" in2="BackgroundImageFix" result="effect1_dropShadow_0_4"/>
<feBlend mode="normal" in="SourceGraphic" in2="effect1_dropShadow_0_4" result="shape"/>
</filter>
</defs>
</svg>
